HIERARCHY
ROOT Root
{
  OFFSET 0.0 0.0 0.0
  CHANNELS 6 Xposition Yposition Zposition Zrotation Yrotation Xrotation
  JOINT Hips
  {
    OFFSET 0.0 100.0 0.0
    CHANNELS 6 Xposition Yposition Zposition Zrotation Yrotation Xrotation
    JOINT Spine1
    {
      OFFSET 5.003913 -0.037094 -0.013727
      CHANNELS 3 Zrotation Yrotation Xrotation
      JOINT Spine2
      {
        OFFSET 7.125363 -1e-06 0.0
        CHANNELS 3 Zrotation Yrotation Xrotation
        JOINT Chest
        {
          OFFSET 7.594027 1e-06 0.0
          CHANNELS 3 Zrotation Yrotation Xrotation
          JOINT Neck1
          {
            OFFSET 26.313086 -0.460272 -0.181672
            CHANNELS 3 Zrotation Yrotation Xrotation
            JOINT Neck2
            {
              OFFSET 8.045911 0.0 0.0
              CHANNELS 3 Zrotation Yrotation Xrotation
              JOINT Head
              {
                OFFSET 6.432774 0.0 0.0
                CHANNELS 3 Zrotation Yrotation Xrotation
                JOINT HeadEnd
                {
                  OFFSET 16.169773 0.06451 0.00362
                  CHANNELS 3 Zrotation Yrotation Xrotation
                }
                JOINT Jaw
                {
                  OFFSET 0.108741 3.12938 0.002639
                  CHANNELS 3 Zrotation Yrotation Xrotation
                }
                JOINT LeftEye
                {
                  OFFSET 4.45173 8.166359 3.206392
                  CHANNELS 3 Zrotation Yrotation Xrotation
                }
                JOINT RightEye
                {
                  OFFSET 4.436895 8.135758 -3.222429
                  CHANNELS 3 Zrotation Yrotation Xrotation
                }
              }
            }
          }
          JOINT LeftShoulder
          {
            OFFSET 23.218927 5.195579 1.621656
            CHANNELS 3 Zrotation Yrotation Xrotation
            JOINT LeftArm
            {
              OFFSET 15.902118 2e-06 -2e-06
              CHANNELS 3 Zrotation Yrotation Xrotation
              JOINT LeftForeArm
              {
                OFFSET 28.739307 0.0 -1e-06
                CHANNELS 3 Zrotation Yrotation Xrotation
                JOINT LeftHand
                {
                  OFFSET 27.093981 -4e-06 0.0
                  CHANNELS 3 Zrotation Yrotation Xrotation
                  JOINT LeftHandThumb1
                  {
                    OFFSET 2.276781 3.380274 0.83384
                    CHANNELS 3 Zrotation Yrotation Xrotation
                    JOINT LeftHandThumb2
                    {
                      OFFSET 4.705309 -1e-06 -1e-06
                      CHANNELS 3 Zrotation Yrotation Xrotation
                      JOINT LeftHandThumb3
                      {
                        OFFSET 2.798515 0.0 3e-06
                        CHANNELS 3 Zrotation Yrotation Xrotation
                        JOINT LeftHandThumbEnd
                        {
                          OFFSET 3.180793 4e-06 -4e-06
                          CHANNELS 3 Zrotation Yrotation Xrotation
                        }
                      }
                    }
                  }
                  JOINT LeftHandIndex1
                  {
                    OFFSET 3.247786 2.352677 0.137192
                    CHANNELS 3 Zrotation Yrotation Xrotation
                    JOINT LeftHandIndex2
                    {
                      OFFSET 6.367095 1e-06 0.0
                      CHANNELS 3 Zrotation Yrotation Xrotation
                      JOINT LeftHandIndex3
                      {
                        OFFSET 3.662364 0.0 0.0
                        CHANNELS 3 Zrotation Yrotation Xrotation
                        JOINT LeftHandIndex4
                        {
                          OFFSET 2.329242 4e-06 -4e-06
                          CHANNELS 3 Zrotation Yrotation Xrotation
                          JOINT LeftHandIndexEnd
                          {
                            OFFSET 2.767823 1e-06 0.0
                            CHANNELS 3 Zrotation Yrotation Xrotation
                          }
                        }
                      }
                    }
                  }
                  JOINT LeftHandMiddle1
                  {
                    OFFSET 3.163612 0.945023 -0.406112
                    CHANNELS 3 Zrotation Yrotation Xrotation
                    JOINT LeftHandMiddle2
                    {
                      OFFSET 6.276789 3e-06 0.0
                      CHANNELS 3 Zrotation Yrotation Xrotation
                      JOINT LeftHandMiddle3
                      {
                        OFFSET 4.35652 -1e-06 4e-06
                        CHANNELS 3 Zrotation Yrotation Xrotation
                        JOINT LeftHandMiddle4
                        {
                          OFFSET 2.996877 0.0 8e-06
                          CHANNELS 3 Zrotation Yrotation Xrotation
                          JOINT LeftHandMiddleEnd
                          {
                            OFFSET 2.323256 3e-06 -4e-06
                            CHANNELS 3 Zrotation Yrotation Xrotation
                          }
                        }
                      }
                    }
                  }
                  JOINT LeftHandRing1
                  {
                    OFFSET 2.882606 -0.309162 0.107445
                    CHANNELS 3 Zrotation Yrotation Xrotation
                    JOINT LeftHandRing2
                    {
                      OFFSET 6.033198 0.0 4e-06
                      CHANNELS 3 Zrotation Yrotation Xrotation
                      JOINT LeftHandRing3
                      {
                        OFFSET 4.350578 3e-06 0.0
                        CHANNELS 3 Zrotation Yrotation Xrotation
                        JOINT LeftHandRing4
                        {
                          OFFSET 2.651321 2e-06 -7e-06
                          CHANNELS 3 Zrotation Yrotation Xrotation
                          JOINT LeftHandRingEnd
                          {
                            OFFSET 1.937663 1e-06 -4e-06
                            CHANNELS 3 Zrotation Yrotation Xrotation
                          }
                        }
                      }
                    }
                  }
                  JOINT LeftHandPinky1
                  {
                    OFFSET 2.865315 -1.525436 0.575687
                    CHANNELS 3 Zrotation Yrotation Xrotation
                    JOINT LeftHandPinky2
                    {
                      OFFSET 5.54936 1e-06 -8e-06
                      CHANNELS 3 Zrotation Yrotation Xrotation
                      JOINT LeftHandPinky3
                      {
                        OFFSET 3.070974 0.0 -4e-06
                        CHANNELS 3 Zrotation Yrotation Xrotation
                        JOINT LeftHandPinky4
                        {
                          OFFSET 1.549672 1e-06 0.0
                          CHANNELS 3 Zrotation Yrotation Xrotation
                          JOINT LeftHandPinkyEnd
                          {
                            OFFSET 1.952123 0.0 0.0
                            CHANNELS 3 Zrotation Yrotation Xrotation
                          }
                        }
                      }
                    }
                  }
                }
              }
            }
          }
          JOINT RightShoulder
          {
            OFFSET 23.161716 5.296122 -1.380114
            CHANNELS 3 Zrotation Yrotation Xrotation
            JOINT RightArm
            {
              OFFSET -16.027195 -2e-06 1.1e-05
              CHANNELS 3 Zrotation Yrotation Xrotation
              JOINT RightForeArm
              {
                OFFSET -28.736639 4e-06 2e-06
                CHANNELS 3 Zrotation Yrotation Xrotation
                JOINT RightHand
                {
                  OFFSET -27.133619 6e-06 0.0
                  CHANNELS 3 Zrotation Yrotation Xrotation
                  JOINT RightHandThumb1
                  {
                    OFFSET -2.274328 -3.351035 -0.83067
                    CHANNELS 3 Zrotation Yrotation Xrotation
                    JOINT RightHandThumb2
                    {
                      OFFSET -4.703594 -3e-06 2e-06
                      CHANNELS 3 Zrotation Yrotation Xrotation
                      JOINT RightHandThumb3
                      {
                        OFFSET -2.794935 -4e-06 -3e-06
                        CHANNELS 3 Zrotation Yrotation Xrotation
                        JOINT RightHandThumbEnd
                        {
                          OFFSET -3.183852 4e-06 1e-06
                          CHANNELS 3 Zrotation Yrotation Xrotation
                        }
                      }
                    }
                  }
                  JOINT RightHandIndex1
                  {
                    OFFSET -3.253496 -2.33755 -0.127667
                    CHANNELS 3 Zrotation Yrotation Xrotation
                    JOINT RightHandIndex2
                    {
                      OFFSET -6.344434 0.0 0.0
                      CHANNELS 3 Zrotation Yrotation Xrotation
                      JOINT RightHandIndex3
                      {
                        OFFSET -3.654871 0.0 -8e-06
                        CHANNELS 3 Zrotation Yrotation Xrotation
                        JOINT RightHandIndex4
                        {
                          OFFSET -2.327586 -1e-06 0.0
                          CHANNELS 3 Zrotation Yrotation Xrotation
                          JOINT RightHandIndexEnd
                          {
                            OFFSET -2.770001 3e-06 8e-06
                            CHANNELS 3 Zrotation Yrotation Xrotation
                          }
                        }
                      }
                    }
                  }
                  JOINT RightHandMiddle1
                  {
                    OFFSET -3.168223 -0.944764 0.411762
                    CHANNELS 3 Zrotation Yrotation Xrotation
                    JOINT RightHandMiddle2
                    {
                      OFFSET -6.266691 -1e-06 -4e-06
                      CHANNELS 3 Zrotation Yrotation Xrotation
                      JOINT RightHandMiddle3
                      {
                        OFFSET -4.348901 0.0 0.0
                        CHANNELS 3 Zrotation Yrotation Xrotation
                        JOINT RightHandMiddle4
                        {
                          OFFSET -3.00024 2e-06 -4e-06
                          CHANNELS 3 Zrotation Yrotation Xrotation
                          JOINT RightHandMiddleEnd
                          {
                            OFFSET -2.321477 -4e-06 -4e-06
                            CHANNELS 3 Zrotation Yrotation Xrotation
                          }
                        }
                      }
                    }
                  }
                  JOINT RightHandRing1
                  {
                    OFFSET -2.885654 0.293261 -0.119232
                    CHANNELS 3 Zrotation Yrotation Xrotation
                    JOINT RightHandRing2
                    {
                      OFFSET -6.032835 -1e-06 -4e-06
                      CHANNELS 3 Zrotation Yrotation Xrotation
                      JOINT RightHandRing3
                      {
                        OFFSET -4.33881 0.0 -4e-06
                        CHANNELS 3 Zrotation Yrotation Xrotation
                        JOINT RightHandRing4
                        {
                          OFFSET -2.654903 -4e-06 -4e-06
                          CHANNELS 3 Zrotation Yrotation Xrotation
                          JOINT RightHandRingEnd
                          {
                            OFFSET -1.935122 0.0 4e-06
                            CHANNELS 3 Zrotation Yrotation Xrotation
                          }
                        }
                      }
                    }
                  }
                  JOINT RightHandPinky1
                  {
                    OFFSET -2.866241 1.503904 -0.60527
                    CHANNELS 3 Zrotation Yrotation Xrotation
                    JOINT RightHandPinky2
                    {
                      OFFSET -5.553177 -2e-06 0.0
                      CHANNELS 3 Zrotation Yrotation Xrotation
                      JOINT RightHandPinky3
                      {
                        OFFSET -3.062664 -1e-06 -4e-06
                        CHANNELS 3 Zrotation Yrotation Xrotation
                        JOINT RightHandPinky4
                        {
                          OFFSET -1.546529 2e-06 4e-06
                          CHANNELS 3 Zrotation Yrotation Xrotation
                          JOINT RightHandPinkyEnd
                          {
                            OFFSET -1.952341 0.0 -4e-06
                            CHANNELS 3 Zrotation Yrotation Xrotation
                          }
                        }
                      }
                    }
                  }
                }
              }
            }
          }
        }
      }
    }
    JOINT LeftLeg
    {
      OFFSET -8.443107 2.567604 10.043214
      CHANNELS 3 Zrotation Yrotation Xrotation
      JOINT LeftShin
      {
        OFFSET 43.229198 1e-06 -1e-06
        CHANNELS 3 Zrotation Yrotation Xrotation
        JOINT LeftFoot
        {
          OFFSET 42.298611 1e-06 1e-06
          CHANNELS 3 Zrotation Yrotation Xrotation
          JOINT LeftToeBase
          {
            OFFSET 14.165858 1e-06 0.0
            CHANNELS 3 Zrotation Yrotation Xrotation
            JOINT LeftToeEnd
            {
              OFFSET 6.7141 -0.234461 0.0
              CHANNELS 3 Zrotation Yrotation Xrotation
            }
          }
        }
      }
    }
    JOINT RightLeg
    {
      OFFSET -8.303923 2.592729 -10.047278
      CHANNELS 3 Zrotation Yrotation Xrotation
      JOINT RightShin
      {
        OFFSET -43.369682 0.0 1e-06
        CHANNELS 3 Zrotation Yrotation Xrotation
        JOINT RightFoot
        {
          OFFSET -42.260784 4e-06 2e-06
          CHANNELS 3 Zrotation Yrotation Xrotation
          JOINT RightToeBase
          {
            OFFSET -14.222245 -2e-06 -1e-06
            CHANNELS 3 Zrotation Yrotation Xrotation
            JOINT RightToeEnd
            {
              OFFSET -6.660062 0.232574 -2e-06
              CHANNELS 3 Zrotation Yrotation Xrotation
            }
          }
        }
      }
    }
  }
}
MOTION
Frames: 4
Frame Time: 0.03333333333333333
0.0 0.0 0.0 0.0 -0.0 0.0 0.585617 48.230778 4.899497 91.602394 -56.359932 89.245567 17.628002 -0.799168 -0.841132 -4.503676 -0.407726 -0.205061 14.077145 1.254858 -2.153507 16.059656 -0.463035 3.470145 -2.692706 -0.01667 -0.897847 -23.102383 -0.135102 -1.024677 5e-06 -0.0 0.0 -0.279504 0.10314 -0.028411 -0.173329 0.211147 -0.012028 -0.190358 -0.001529 -0.044919 -27.638201 -71.865692 33.086353 87.264931 1.011141 -30.228909 10.409991 -0.708741 -0.142611 -1.19816 69.113815 3.003147 17.636625 -26.322733 52.411205 -19.466661 -14.395602 29.410395 -1e-06 -8.774822 -1e-06 15.734052 -18.138655 6.601302 -0.609778 -1.795654 -3.889328 -4.807088 -11.046811 -2.937851 6e-06 -20.976013 -1e-06 -5.019969 -25.033556 -4.031882 6e-06 0.0 1e-06 -10.634536 -5.68697 -3.565588 10.573277 -17.922951 -3.113901 3e-06 -13.821209 1e-06 -0.501776 -31.181505 -4.027016 -11.175011 -59.435268 7.321364 -13.982714 -7.150197 -2.875042 13.772733 -8.401493 -3.218242 0.347735 -34.211555 0.771655 -0.963028 -17.73337 2.621022 -0.0 0.0 -1e-06 -17.346416 -20.095215 -4.201783 21.757555 -1.638377 3.866425 1e-06 -6.338822 1e-06 -1.697588 -22.591738 -6.194006 -0.0 -3e-06 -2e-06 155.314774 -76.807396 29.095547 91.066788 -0.935177 -14.467849 9.739242 -1.178867 -0.111828 -0.691355 69.826469 0.829545 22.18211 -20.375893 49.933327 -16.701813 -16.74353 28.476534 -3e-06 -12.690601 0.0 17.017275 -18.01956 1.981383 -0.105919 -1.513858 -4.275881 -5.039041 -5.612872 -2.953558 5e-06 -11.02052 -3e-06 -6.111297 -15.89533 -3.840469 -1e-06 -2e-06 -0.0 -10.283371 -5.680288 -4.341838 11.028294 -11.302404 -2.372635 -1.384268 -14.238579 -6.32012 -0.625437 -26.924185 -3.827602 -4.612367 -49.828091 -4.12841 -13.708524 -7.363476 -3.720939 18.14115 -14.052737 -3.242676 6e-06 -18.78727 -3e-06 -0.429711 -8.45604 2.555503 -1e-06 1e-06 0.0 -15.923536 -20.094484 -5.473583 30.41921 -7.190823 1.735923 2e-06 -8.162921 -1e-06 -1.861901 -22.861467 -6.167942 0.0 -3e-06 -1e-06 122.135109 -4.099408 -4.729908 103.605934 0.362058 0.578238 -32.102173 16.506992 -8.493188 -3.799793 1.124531 2.981553 -1.0 -0.0 -0.0 -55.276741 -6.992853 -0.550292 103.302116 -1.455714 0.245041 -43.017536 25.495787 -17.61643 -4.697448 0.071598 2.328537 -1.000005 1e-06 -1e-06 
0.0 0.0 0.0 0.0 -0.0 0.0 0.641495 48.208359 4.953809 91.431175 -56.392727 89.347282 17.573116 -0.689687 -0.795359 -4.557297 -0.382412 -0.191858 14.17034 1.28214 -2.071001 16.137381 -0.609184 3.393584 -2.686201 0.004262 -0.950922 -22.976503 -0.120869 -1.062225 5e-06 0.0 -0.0 -0.281775 0.077505 -0.027074 -0.167175 0.18315 -0.010544 -0.186746 -0.02337 -0.045046 -27.638821 -71.960938 33.385254 87.353333 1.356523 -30.550634 10.344171 -0.69796 -0.1374 0.103363 68.966248 4.225165 17.636631 -26.322733 52.411201 -19.46666 -14.395597 29.410395 -1e-06 -8.774822 -2e-06 15.685484 -18.225061 6.692225 -0.609777 -1.795654 -3.889328 -4.80709 -11.046811 -2.93785 4e-06 -20.976017 -1e-06 -5.019971 -25.033556 -4.031882 7e-06 0.0 1e-06 -10.634535 -5.68697 -3.565588 10.573272 -17.922951 -3.113899 2e-06 -13.821211 1e-06 -0.501778 -31.181505 -4.027016 -11.169939 -59.743626 7.402162 -13.982713 -7.150197 -2.875043 13.772728 -8.401493 -3.218242 0.347734 -34.211552 0.771653 -0.963029 -17.73337 2.62102 -0.0 0.0 -1e-06 -17.346422 -20.095217 -4.201784 21.757561 -1.638376 3.866428 1e-06 -6.338824 0.0 -1.69759 -22.591743 -6.194008 -0.0 -5e-06 -2e-06 155.12851 -76.686546 29.498955 91.100014 -0.727222 -14.712482 9.708089 -1.095212 -0.108936 0.315161 69.689163 1.868052 22.182117 -20.375898 49.933327 -16.701815 -16.743526 28.47653 -1e-06 -12.690603 -1e-06 16.915195 -18.00176 2.046206 -0.105919 -1.513857 -4.275882 -5.039042 -5.612873 -2.953557 4e-06 -11.020527 -2e-06 -6.111298 -15.895338 -3.840471 0.0 -0.0 -0.0 -10.283371 -5.680291 -4.34184 11.028296 -11.302406 -2.372634 -1.384269 -14.238583 -6.32012 -0.625437 -26.924189 -3.827603 -4.584543 -49.943737 -4.04909 -13.708526 -7.363478 -3.720939 18.141153 -14.05274 -3.242676 6e-06 -18.787275 -2e-06 -0.429712 -8.456045 2.555504 0.0 0.0 0.0 -15.923536 -20.094486 -5.473585 30.419214 -7.190826 1.735925 2e-06 -8.162926 -1e-06 -1.861902 -22.861473 -6.167943 0.0 -5e-06 -1e-06 122.164795 -4.141569 -4.718184 103.591743 0.337063 0.600022 -32.167473 16.280771 -8.276883 -3.745511 1.148993 2.973089 -1.0 -0.0 0.0 -55.238361 -6.987984 -0.610189 103.170799 -1.434791 0.24168 -42.649334 25.413177 -17.594778 -4.69121 0.077493 2.329679 -1.000003 1e-06 -0.0 
0.0 0.0 0.0 0.0 -0.0 0.0 0.683759 48.184265 4.987974 91.388756 -56.416557 89.381783 17.494625 -0.619807 -0.742681 -4.601686 -0.350714 -0.174881 14.255217 1.287867 -2.036149 16.252579 -0.702452 3.307322 -2.684767 0.014159 -0.977965 -22.911949 -0.131142 -1.093022 5e-06 0.0 -0.0 -0.278709 0.05433 -0.02164 -0.205611 0.161106 -0.014993 -0.215248 -0.047324 -0.032682 -27.30332 -71.976173 33.251675 87.342621 1.539645 -30.619326 10.391374 -0.674891 -0.13836 0.37752 68.767761 4.378952 17.636629 -26.322729 52.41119 -19.46666 -14.395596 29.410393 0.0 -8.774822 -2e-06 15.687351 -18.252558 6.737905 -0.609776 -1.795653 -3.889328 -4.807088 -11.046811 -2.937851 5e-06 -20.976017 0.0 -5.019969 -25.033552 -4.031881 6e-06 -1e-06 1e-06 -10.634535 -5.686969 -3.565588 10.573277 -17.922949 -3.113901 3e-06 -13.821205 1e-06 -0.501775 -31.181498 -4.027017 -11.130172 -59.944199 7.426838 -13.982713 -7.150198 -2.875042 13.772727 -8.401491 -3.218243 0.347734 -34.21154 0.771653 -0.963028 -17.733366 2.621019 -0.0 -0.0 -0.0 -17.346416 -20.095213 -4.201785 21.757559 -1.638374 3.866429 1e-06 -6.338822 0.0 -1.69759 -22.591745 -6.194006 -1e-06 -5e-06 -2e-06 155.284698 -76.646103 29.536983 90.935471 -0.547067 -14.636546 9.770538 -1.072004 -0.109961 0.674097 69.764946 2.444984 22.182119 -20.375895 49.933319 -16.701813 -16.743528 28.476524 -2e-06 -12.690601 -2e-06 16.864105 -17.93391 2.114149 -0.105919 -1.513857 -4.275881 -5.039041 -5.612872 -2.953557 4e-06 -11.020523 -2e-06 -6.111297 -15.895334 -3.840469 0.0 -0.0 -1e-06 -10.283371 -5.680289 -4.341838 11.028293 -11.302404 -2.372632 -1.38427 -14.238581 -6.32012 -0.62544 -26.924191 -3.827599 -4.540452 -50.006081 -3.969887 -13.708524 -7.363478 -3.720938 18.141148 -14.052733 -3.242673 5e-06 -18.787273 -2e-06 -0.429711 -8.456041 2.555504 -0.0 2e-06 0.0 -15.923536 -20.094482 -5.473582 30.41921 -7.190824 1.735927 2e-06 -8.162924 -1e-06 -1.861903 -22.861471 -6.167941 -1e-06 -3e-06 -1e-06 122.187164 -4.132084 -4.737337 103.581985 0.334198 0.616261 -32.209381 16.113504 -8.037146 -3.774689 1.163971 2.953631 -0.999999 -1e-06 0.0 -55.209499 -7.011577 -0.577328 103.135887 -1.402747 0.253033 -42.638046 25.440811 -17.687941 -4.778765 0.064463 2.335616 -1.000002 1e-06 -0.0 
0.0 0.0 0.0 0.0 -0.0 0.0 0.707605 48.171524 5.017813 91.36618 -56.480083 89.447968 17.419058 -0.564094 -0.713658 -4.643836 -0.323816 -0.167377 14.291339 1.323727 -2.039967 16.345125 -0.778664 3.235778 -2.679017 0.025867 -0.999577 -22.946884 -0.158135 -1.103015 4e-06 -0.0 0.0 -0.277084 0.034532 -0.015567 -0.250797 0.141661 -0.019222 -0.248856 -0.068321 -0.018184 -27.115215 -71.977531 33.203899 87.32708 1.655687 -30.646872 10.486622 -0.679083 -0.146976 0.494674 68.703201 4.631041 17.636637 -26.322735 52.411201 -19.466663 -14.395598 29.410389 -1e-06 -8.774823 -2e-06 15.679289 -18.231482 6.755268 -0.609777 -1.795654 -3.889328 -4.807091 -11.046813 -2.93785 2e-06 -20.976021 1e-06 -5.019971 -25.03356 -4.031882 6e-06 -0.0 1e-06 -10.634535 -5.686971 -3.565588 10.573275 -17.922955 -3.1139 2e-06 -13.821211 0.0 -0.501778 -31.181505 -4.027015 -11.098274 -60.004265 7.386156 -13.982716 -7.150199 -2.875043 13.772731 -8.401494 -3.21824 0.347732 -34.211559 0.771656 -0.963029 -17.733374 2.621022 -0.0 -0.0 0.0 -17.346422 -20.095221 -4.201782 21.757561 -1.638375 3.866429 1e-06 -6.338823 0.0 -1.69759 -22.591751 -6.194007 -0.0 -4e-06 -2e-06 155.401688 -76.603981 29.528677 90.758537 -0.479608 -14.394846 9.923089 -1.046018 -0.110865 0.503518 70.021942 2.487134 22.182121 -20.375898 49.933327 -16.70182 -16.743532 28.476536 -1e-06 -12.690603 -0.0 16.859678 -17.880903 2.175468 -0.10592 -1.513855 -4.275884 -5.039042 -5.612875 -2.953557 3e-06 -11.020528 -2e-06 -6.111298 -15.895338 -3.840471 -0.0 -0.0 1e-06 -10.283372 -5.680289 -4.34184 11.028296 -11.302409 -2.372633 -1.38427 -14.238586 -6.320122 -0.625439 -26.924198 -3.827604 -4.520438 -50.088253 -3.882239 -13.708527 -7.363478 -3.720941 18.141153 -14.05274 -3.242676 5e-06 -18.787279 -2e-06 -0.429711 -8.456045 2.555503 -0.0 -0.0 0.0 -15.923539 -20.094494 -5.473586 30.419218 -7.190824 1.735927 3e-06 -8.162927 -1e-06 -1.861904 -22.861483 -6.167943 0.0 -3e-06 -1e-06 122.144165 -4.080807 -4.705975 103.562141 0.348522 0.626319 -32.21772 16.062067 -7.834783 -3.918319 1.17597 2.930742 -0.999998 -0.0 1e-06 -55.21917 -7.069092 -0.556374 103.129768 -1.356129 0.264286 -42.786358 25.459284 -17.899506 -4.863327 0.045644 2.347825 -1.000004 1e-06 -0.0 
